<svg viewBox="0 0 120 60" fill="none" xmlns="http://www.w3.org/2000/svg"><path d="M56.48 22.2c.176 0 .328.064.456.192s.192.28.192.456v3.864a.623.623 0 0 1-.192.456.623.623 0 0 1-.456.192h-5.16v10.992a.623.623 0 0 1-.192.456.623.623 0 0 1-.456.192h-4.944a.623.623 0 0 1-.456-.192.623.623 0 0 1-.192-.456V27.36h-5.16a.623.623 0 0 1-.456-.192.623.623 0 0 1-.192-.456v-3.864c0-.176.064-.328.192-.456a.623.623 0 0 1 .456-.192h16.56Zm21.639 16.056a.476.476 0 0 1 .048.216.529.529 0 0 1-.168.384.488.488 0 0 1-.36.144H72.19c-.224 0-.432-.056-.624-.168a.996.996 0 0 1-.384-.432l-2.112-4.752h-2.016v4.704a.623.623 0 0 1-.192.456.623.623 0 0 1-.456.192h-5.184a.623.623 0 0 1-.456-.192.623.623 0 0 1-.192-.456V22.848c0-.176.064-.328.192-.456a.623.623 0 0 1 .456-.192h9.336c1.44 0 2.696.232 3.768.696 1.088.464 1.92 1.136 2.496 2.016.576.88.864 1.912.864 3.096 0 2.176-.84 3.752-2.52 4.728l2.952 5.52Zm-8.064-9.048c.352 0 .624-.112.816-.336.192-.24.288-.536.288-.888s-.096-.656-.288-.912c-.176-.272-.448-.408-.816-.408h-3v2.544h3Zm15.47 8.976c-.208.544-.568.816-1.08.816H79.91a.573.573 0 0 1-.384-.144.573.573 0 0 1-.144-.384l.024-.144 5.232-15.336c.064-.208.184-.392.36-.552.176-.16.416-.24.72-.24h6.672c.304 0 .544.08.72.24.176.16.296.344.36.552l5.232 15.336.024.144a.529.529 0 0 1-.168.384.488.488 0 0 1-.36.144h-4.536c-.512 0-.872-.272-1.08-.816l-.6-1.68h-5.856l-.6 1.68Zm3.528-11.352-1.704 4.992h3.408l-1.704-4.992Zm29.223 11.376a.26.26 0 0 1 .072.192c0 .16-.056.304-.168.432a.455.455 0 0 1-.36.168h-5.16c-.432 0-.76-.184-.984-.552l-2.328-3.576-2.28 3.576c-.24.368-.568.552-.984.552H100.9a.573.573 0 0 1-.384-.144.573.573 0 0 1-.144-.384V38.4a.26.26 0 0 1 .072-.192l5.304-8.112-4.728-7.104a.431.431 0 0 1-.072-.264c0-.144.048-.264.144-.36a.529.529 0 0 1 .384-.168h5.184c.416 0 .752.2 1.008.6l1.872 3.072 2.016-3.12c.112-.144.232-.272.36-.384.144-.112.352-.168.624-.168h5.16c.144 0 .264.056.36.168a.455.455 0 0 1 .168.36v.072a.26.26 0 0 1-.072.192l-5.016 7.416 5.136 7.8Z" fill="#fff"/><path stroke="#fff" stroke-width="2" stroke-linecap="round" d="M15 18v26M11 20v22M7 22v18M3 26v10M19 18v26M23 20v22M27 22v18M31 26v10"/></svg>